<svg id="logo" xmlns="http://www.w3.org/2000/svg" width="239.19" height="58.9" viewBox="0 0 239.19 58.9">
  <path id="Path_1" data-name="Path 1" d="M205.91,391.18,178.39,450h10.53l5.67-12.62,31.27.14L231.52,450h11.1l-28.09-58.82Zm-7.48,37.63,11.69-26,11.79,26Z" transform="translate(-178.39 -391.1)" fill="#fff"/>
  <path id="Path_2" data-name="Path 2" d="M90.11,0,80.13.07V58.9h40.91V49.59H90.11Z" fill="#fff"/>
  <path id="Path_3" data-name="Path 3" d="M123.3,8.44l19.8.01V58.9h9.97V8.45l19.8-.01V.08H123.3Z" fill="#fff"/>
  <path id="Path_4" data-name="Path 4" d="M401.53,426.43c12.85-2.93,14.41-13.69,14.41-17.33,0-4.23-2.37-17.92-21.83-17.92H368.78V450H378V427.36l14.16-.15L407,450h10.58ZM378,419V399.54h16.41c8.71,0,11.93,4.88,11.93,9.56s-1.81,9.9-11.95,9.9Z" transform="translate(-178.39 -391.1)" fill="#fff"/>
</svg>
