<?xml version="1.0" encoding="utf-8"?>
<!-- Generator: Adobe Illustrator 27.0.1, SVG Export Plug-In . SVG Version: 6.00 Build 0)  -->
<svg version="1.1" id="Layer_1" xmlns="http://www.w3.org/2000/svg" xmlns:xlink="http://www.w3.org/1999/xlink" x="0px" y="0px"
	 viewBox="0 0 326.6 37.6" style="enable-background:new 0 0 326.6 37.6;" xml:space="preserve">
<style type="text/css">
	.st0{fill:#6A0033;}
</style>
<path class="st0" d="M196.9,26.8v-16h3v7.5h15.2v-7.5h3v16h-3v-7.3H200v7.3C200,26.8,198,26.7,196.9,26.8L196.9,26.8z M264.5,12.9
	v13.8h-1l-0.1-16h3l9.3,12.1l8.3-12.1h3v16h-3l0-13.7l-9.2,13.7h-0.1L264.5,12.9L264.5,12.9z M254.8,10.8v16h-3.1v-16
	C251.7,10.8,254.8,10.8,254.8,10.8z M119.3,10.3c6.7,0,12.1,3.8,12.1,8.5s-5.4,8.5-12.1,8.5s-12.1-3.8-12.1-8.5
	S112.7,10.3,119.3,10.3L119.3,10.3z M119.3,26.2c5,0,9-3.3,9-7.4s-4-7.4-9-7.4s-9,3.3-9,7.4S114.3,26.2,119.3,26.2L119.3,26.2z
	 M243.7,25.7v1.1h-17.8l-0.1-16h17.9v1.1h-14.8v6.4h14.8v1.1h-14.8v6.2L243.7,25.7L243.7,25.7z M167.9,23.8c1.8,0.7,4.1,1.3,5.1,1.5
	c4.6,0.9,12.1,1.3,13.6-1.7c0.6-1.1-0.7-2.1-1.6-2.5c-2-0.8-3.6-1-5.5-1.1c-1.8-0.1-3.8-0.2-6.3-0.8c-3.7-0.8-5-2.4-5-4.1
	c0-2.4,3.1-3.6,6.1-4.1c4.7-0.8,9.4-0.5,13.5,0.9c0,0,0,1.2,0,1.3c-2.5-0.9-5.3-1.5-9-1.5c-4.3,0-8.1,1.3-8.1,3.1
	c0,0.9,1.2,1.7,2.3,1.9c2.7,0.7,5.5,0.7,8.2,1c2.7,0.2,5.2,0.7,7.2,2.3c1,0.8,1.6,2.2,0.8,3.7c-2.1,4-9.4,4.2-15.6,3.2
	c-2.4-0.4-4-1-5.8-1.6 M293.4,23.8c1.8,0.7,4.1,1.3,5.1,1.5c4.6,0.9,12.1,1.3,13.6-1.7c0.5-1.1-0.7-2.1-1.6-2.5
	c-2-0.8-3.6-1-5.5-1.1c-1.8-0.1-3.8-0.2-6.3-0.8c-3.7-0.8-5-2.4-5-4.1c0-2.4,3.1-3.6,6.1-4.1c4.7-0.8,9.4-0.5,13.5,0.9
	c0,0,0,1.2,0,1.3c-2.5-0.9-5.3-1.5-9-1.5c-4.3,0-8.1,1.3-8.1,3.1c0,0.9,1.2,1.7,2.3,1.9c2.7,0.7,5.5,0.7,8.2,1
	c2.7,0.2,5.2,0.7,7.2,2.3c1,0.8,1.6,2.2,0.8,3.7c-2.1,4-9.4,4.2-15.6,3.2c-2.4-0.4-4-1-5.8-1.6"/>
<path class="st0" d="M77.9,10.8h13.6c2.6,0,8.9,0,8.9,4.2c0,2.2-2,2.9-3.5,3.4c1.4,0.4,4.3,1.3,4.3,4c0,4.3-6.4,4.5-11.2,4.5H78
	V10.8H77.9z M81,17.6h9.7c3.2,0,6.9-0.4,6.9-2.6c0-2.6-3.3-3.1-7.8-3.1H81V17.6L81,17.6z M81,25.7h10.7c3.6,0,6.6-1,6.6-3.4
	c0-2.2-2.5-3-6.3-3H81V25.7z"/>
<path class="st0" d="M138,10.8h13.6c3.7,0,9.1,0.6,9.1,4.5c0,3.4-4.5,4.3-7.2,4.4l7.6,7.1h-3.4l-7.4-7.1h-9.1v7.1H138V10.8L138,10.8
	z M141.1,18h9.9c4,0,7-0.4,7-2.8c0-2.3-3-3.3-7-3.3h-9.9V18z"/>
<g>
	<g>
		<path class="st0" d="M32.6,37.6L0,18.8L32.6,0l32.6,18.8L32.6,37.6z M3.2,18.8l29.4,17l29.4-17l-29.4-17L3.2,18.8z"/>
	</g>
	<g>
		<path class="st0" d="M23.7,11.8h11.8c2.3,0,7.7,0,7.7,3.6c0,1.9-1.8,2.5-3,2.9c1.2,0.4,3.7,1.1,3.7,3.4c0,3.7-5.6,3.9-9.7,3.9
			H23.7V11.8z M26.4,17.7h8.4c2.8,0,5.9-0.3,5.9-2.3c0-2.2-2.8-2.7-6.8-2.7h-7.6C26.4,12.7,26.4,17.7,26.4,17.7z M26.4,24.6h9.3
			c3.1,0,5.7-0.9,5.7-3c0-1.9-2.2-2.6-5.4-2.6h-9.6V24.6z"/>
	</g>
</g>
<g>
	<path class="st0" d="M326.6,24.1c0,2.5-2,4.5-4.5,4.5c-2.4,0-4.5-1.9-4.5-4.4c0-2.5,2.1-4.5,4.5-4.5
		C324.5,19.7,326.6,21.6,326.6,24.1z M322.1,28c2.1,0,3.8-1.7,3.8-3.8c0-2.1-1.7-3.8-3.8-3.8c-2.1,0-3.8,1.7-3.8,3.8
		C318.3,26.3,320,28,322.1,28z M322.4,21.6c1.2,0,1.8,0.4,1.8,1.5c0,0.8-0.5,1.3-1.4,1.4l1.5,2.3h-0.8l-1.4-2.2h-0.9v2.2h-0.7v-5.2
		H322.4z M322.1,23.9c1.1,0,1.3-0.3,1.3-0.9c0-0.5-0.4-0.8-1.1-0.8h-1.2v1.7H322.1z"/>
</g>
</svg>
